HIERARCHY
ROOT Hips
{
	OFFSET 0.000000 0.000000 0.000000
	CHANNELS 6 Xposition Yposition Zposition Zrotation Yrotation Xrotation 
	JOINT LowerBack
	{
		OFFSET 0.000000 0.000000 0.000000
		CHANNELS 3 Zrotation Yrotation Xrotation
		JOINT Spine
		{
			OFFSET 0.028270 2.035590 -0.193380
			CHANNELS 3 Zrotation Yrotation Xrotation
			JOINT Spine1
			{
				OFFSET 0.056720 2.048850 -0.042750
				CHANNELS 3 Zrotation Yrotation Xrotation
				JOINT Neck
				{
					OFFSET 0.000000 0.000000 0.000000
					CHANNELS 3 Zrotation Yrotation Xrotation
					JOINT Neck1
					{
						OFFSET -0.054170 1.746240 0.172020
						CHANNELS 3 Zrotation Yrotation Xrotation
						JOINT Head
						{
							OFFSET 0.104070 1.761360 -0.123970
							CHANNELS 3 Zrotation Yrotation Xrotation
							End Site
							{
								OFFSET 0.000000 0.000000 0.000000
							}
						}
					}
				}
				JOINT LeftShoulder
				{
					OFFSET 0.000000 0.000000 0.000000
					CHANNELS 3 Zrotation Yrotation Xrotation
					JOINT LeftArm
					{
						OFFSET 3.362410 1.200890 -0.311210
						CHANNELS 3 Zrotation Yrotation Xrotation
						JOINT LeftForeArm
						{
							OFFSET 4.983000 -0.000000 -0.000000
							CHANNELS 3 Zrotation Yrotation Xrotation
							JOINT LeftHand
							{
								OFFSET 3.483560 -0.000000 -0.000000
								CHANNELS 3 Zrotation Yrotation Xrotation
								JOINT LeftFingerBase
								{
									OFFSET 0.000000 0.000000 0.000000
									CHANNELS 3 Zrotation Yrotation Xrotation
									JOINT LeftHandIndex1
									{
										OFFSET 0.715260 -0.000000 -0.000000
										CHANNELS 3 Zrotation Yrotation Xrotation
										End Site
										{
											OFFSET 0.000000 0.000000 0.000000
										}
									}
								}
								JOINT LThumb
								{
									OFFSET 0.000000 0.000000 0.000000
									CHANNELS 3 Zrotation Yrotation Xrotation
									End Site
									{
										OFFSET 0.000000 0.000000 0.000000
									}
								}
							}
						}
					}
				}
				JOINT RightShoulder
				{
					OFFSET 0.000000 0.000000 0.000000
					CHANNELS 3 Zrotation Yrotation Xrotation
					JOINT RightArm
					{
						OFFSET -3.136600 1.374050 -0.404650
						CHANNELS 3 Zrotation Yrotation Xrotation
						JOINT RightForeArm
						{
							OFFSET -5.241900 -0.000000 -0.000000
							CHANNELS 3 Zrotation Yrotation Xrotation
							JOINT RightHand
							{
								OFFSET -3.444170 -0.000000 -0.000000
								CHANNELS 3 Zrotation Yrotation Xrotation
								JOINT RightFingerBase
								{
									OFFSET 0.000000 0.000000 0.000000
									CHANNELS 3 Zrotation Yrotation Xrotation
									JOINT RightHandIndex1
									{
										OFFSET -0.622530 -0.000000 -0.000000
										CHANNELS 3 Zrotation Yrotation Xrotation
										End Site
										{
											OFFSET 0.000000 0.000000 0.000000
										}
									}
								}
								JOINT RThumb
								{
									OFFSET 0.000000 0.000000 0.000000
									CHANNELS 3 Zrotation Yrotation Xrotation
									End Site
									{
										OFFSET 0.000000 0.000000 0.000000
									}
								}
							}
						}
					}
				}
			}
		}
	}
}
}
MOTION
Frames: 12
Frame Time: 0.008333
2.838434 17.580416 -0.424540 137.972958 -40.777044 -136.758104 -24.195258 -2.032625 -1.154309 -5.619017 -0.342713 -2.724059 -6.510885 -0.307889 0.601054 2.454410 -10.369618 -6.104623 -3.652342 -0.287944 -0.012225 0.000000 0.000000 0.000000 -2.645414 14.276328 2.992932 -65.802301 8.806650 -3.500029 -3.840329 -21.318880 0.007754 5.620340 0.310154 0.019184 -0.007934 -0.079949 -0.000000 0.000000 0.000000 0.000000 0.000000 0.000000 0.000000 4.632351 -5.426904 -5.299482 89.953483 32.386532 34.974675 -179.959707 67.990926 179.897540 -9.094117 14.580721 -1.269494 0.175794 -0.997131 -0.000000 0.000000 0.000000 0.000000 0.000000 0.000000 0.000000 
2.843488 17.587872 -0.427130 137.976956 -40.648280 -136.612646 -24.146126 -2.064400 -1.287128 -5.599491 -0.375740 -2.751445 -6.484196 -0.345749 0.612773 2.496270 -10.298915 -6.080714 -3.658030 -0.288902 -0.001057 0.000000 0.000000 0.000000 -2.723382 14.251921 3.008645 -66.223757 8.805939 -3.912740 -3.847700 -20.539122 0.007354 5.486215 0.344731 0.020277 -0.007558 -0.077871 -0.000000 0.000000 0.000000 0.000000 0.000000 0.000000 0.000000 4.710620 -5.359033 -5.282871 90.047431 32.405131 35.333164 -179.992112 68.084714 179.900411 -8.881888 14.591583 -1.240611 0.172619 -0.996201 -0.000000 0.000000 0.000000 0.000000 0.000000 0.000000 0.000000 
2.845887 17.593021 -0.427944 137.923302 -40.625021 -136.402257 -24.062415 -2.122213 -1.419268 -5.569403 -0.437000 -2.773810 -6.455410 -0.412601 0.635740 2.556392 -10.263092 -6.053207 -3.661875 -0.289720 0.012235 0.000000 0.000000 0.000000 -2.784606 14.190732 3.022525 -66.658972 8.836233 -4.321830 -3.847941 -19.784234 0.007072 5.418783 0.359968 0.020672 -0.006790 -0.075935 -0.000000 0.000000 0.000000 0.000000 0.000000 0.000000 0.000000 4.798925 -5.349821 -5.266605 90.089440 32.447694 35.667714 179.972226 68.136909 179.903663 -8.627495 14.598818 -1.205540 0.168364 -0.995257 -0.000000 0.000000 0.000000 0.000000 0.000000 0.000000 0.000000 
2.845111 17.596027 -0.426608 137.840878 -40.690673 -136.172770 -23.930588 -2.191195 -1.537047 -5.527239 -0.513102 -2.789617 -6.424299 -0.494592 0.669497 2.625591 -10.266801 -6.027372 -3.660917 -0.290120 0.026199 0.000000 0.000000 0.000000 -2.844442 14.115542 3.030779 -67.092955 8.872273 -4.686044 -3.842535 -19.055796 0.006874 5.396924 0.359433 0.020468 -0.005850 -0.074169 -0.000000 0.000000 0.000000 0.000000 0.000000 0.000000 0.000000 4.874571 -5.396437 -5.252819 90.082870 32.498811 35.960131 179.935923 68.141946 179.907111 -8.342582 14.603214 -1.165885 0.163056 -0.994321 -0.000000 0.000000 0.000000 0.000000 0.000000 0.000000 0.000000 
2.841213 17.597128 -0.423269 137.743302 -40.827829 -135.954982 -23.748931 -2.260678 -1.631039 -5.474074 -0.593757 -2.798701 -6.392760 -0.580924 0.709243 2.699678 -10.311199 -6.003529 -3.654737 -0.290095 0.040640 0.000000 0.000000 0.000000 -2.914181 14.024527 3.031468 -67.507530 8.920185 -4.979692 -3.832847 -18.372736 0.006746 5.399893 0.345357 0.019665 -0.004883 -0.072745 -0.000000 0.000000 0.000000 0.000000 0.000000 0.000000 0.000000 4.929341 -5.492552 -5.240427 90.032621 32.543402 36.196496 179.900535 68.096251 179.910544 -8.044572 14.605056 -1.124040 0.157049 -0.993527 -0.000000 0.000000 0.000000 0.000000 0.000000 0.000000 0.000000 
2.834395 17.596763 -0.418339 137.636053 -41.022785 -135.759318 -23.522117 -2.324283 -1.698334 -5.411989 -0.672144 -2.801470 -6.362126 -0.664407 0.751698 2.774642 -10.395335 -5.982655 -3.643187 -0.289638 0.055094 0.000000 0.000000 0.000000 -3.001091 13.918021 3.023240 -67.887498 8.978285 -5.187036 -3.820651 -17.745354 0.006668 5.410358 0.319152 0.018462 -0.004019 -0.071750 -0.000000 0.000000 0.000000 0.000000 0.000000 0.000000 0.000000 4.957391 -5.632601 -5.228567 89.945974 32.565664 36.365538 179.868148 68.004474 179.913746 -7.753311 14.605110 -1.083102 0.150759 -0.992928 -0.000000 0.000000 0.000000 0.000000 0.000000 0.000000 0.000000 
2.825081 17.595432 -0.412405 137.515031 -41.264284 -135.578989 -23.262512 -2.380413 -1.741559 -5.344360 -0.745470 -2.798921 -6.334388 -0.741986 0.794318 2.848897 -10.514821 -5.964970 -3.626960 -0.288812 0.069204 0.000000 0.000000 0.000000 -3.104680 13.794836 3.006001 -68.219429 9.044112 -5.304722 -3.807918 -17.178121 0.006627 5.416223 0.280578 0.016660 -0.003356 -0.071223 -0.000000 0.000000 0.000000 0.000000 0.000000 0.000000 0.000000 4.958174 -5.810375 -5.216685 89.834368 32.551145 36.460753 179.840755 67.870488 179.916517 -7.488296 14.604185 -1.045765 0.144662 -0.992630 -0.000000 0.000000 0.000000 0.000000 0.000000 0.000000 0.000000 
2.814064 17.593508 -0.406197 137.371688 -41.539648 -135.402851 -22.982818 -2.428740 -1.765241 -5.274066 -0.812386 -2.792557 -6.310404 -0.812191 0.835029 2.920738 -10.662573 -5.951020 -3.607085 -0.287687 0.082540 0.000000 0.000000 0.000000 -3.223332 13.657533 2.980300 -68.493608 9.112152 -5.340810 -3.796218 -16.669542 0.006617 5.412542 0.228952 0.014159 -0.002940 -0.071148 -0.000000 0.000000 0.000000 0.000000 0.000000 0.000000 0.000000 4.933862 -6.017281 -5.204475 89.709049 32.488918 36.481376 179.820330 67.704279 179.918678 -7.268690 14.603067 -1.014724 0.139272 -0.992665 -0.000000 0.000000 0.000000 0.000000 0.000000 0.000000 0.000000 
2.801854 17.591525 -0.400261 137.208830 -41.836328 -135.225258 -22.693161 -2.469133 -1.775940 -5.203345 -0.872053 -2.784312 -6.291360 -0.874156 0.872727 2.988822 -10.828995 -5.941674 -3.584844 -0.286347 0.094599 0.000000 0.000000 0.000000 -3.353385 13.513337 2.947174 -68.704717 9.173592 -5.312567 -3.786596 -16.212748 0.006632 5.400415 0.163539 0.011057 -0.002771 -0.071461 -0.000000 0.000000 0.000000 0.000000 0.000000 0.000000 0.000000 4.888064 -6.242486 -5.192140 89.580962 32.371990 36.431347 179.808625 67.515949 179.920100 -7.109740 14.602557 -0.992375 0.135019 -0.993039 -0.000000 0.000000 0.000000 0.000000 0.000000 0.000000 0.000000 
2.789046 17.589908 -0.395217 137.030855 -42.137291 -135.041081 -22.404357 -2.501507 -1.781743 -5.134585 -0.923603 -2.776560 -6.278147 -0.927028 0.905658 3.051923 -11.002725 -5.936534 -3.561675 -0.284907 0.105269 0.000000 0.000000 0.000000 -3.489056 13.365767 2.908448 -68.851970 9.227387 -5.248170 -3.779595 -15.803859 0.006673 5.384874 0.086108 0.007356 -0.002816 -0.072092 0.000000 0.000000 0.000000 0.000000 0.000000 0.000000 0.000000 4.825484 -6.472832 -5.179300 89.461118 32.195595 36.318707 179.806903 67.317385 179.920710 -7.021508 14.602887 -0.979912 0.132234 -0.993728 -0.000000 0.000000 0.000000 0.000000 0.000000 0.000000 0.000000 
2.776081 17.589014 -0.391157 136.856630 -42.424630 -134.865034 -22.116844 -2.523259 -1.788117 -5.067813 -0.964651 -2.771046 -6.270108 -0.968555 0.934518 3.107283 -11.172060 -5.937732 -3.538417 -0.283391 0.113808 0.000000 0.000000 0.000000 -3.627789 13.235076 2.865367 -68.938773 9.257125 -5.172516 -3.775084 -15.427594 0.006740 5.376070 -0.002597 0.003255 -0.003026 -0.072897 0.000000 0.000000 0.000000 0.000000 0.000000 0.000000 0.000000 4.748710 -6.693445 -5.167382 89.355799 31.963754 36.156363 179.815952 67.120582 179.920494 -7.008615 14.604086 -0.978134 0.131092 -0.994605 -0.000000 0.000000 0.000000 0.000000 0.000000 0.000000 0.000000 
2.763207 17.589073 -0.388329 136.703370 -42.679101 -134.706389 -21.834630 -2.533072 -1.802593 -5.004099 -0.993567 -2.769894 -6.267182 -0.997214 0.958096 3.153258 -11.325778 -5.944373 -3.516161 -0.281898 0.120357 0.000000 0.000000 0.000000 -3.764352 13.126377 2.820097 -68.972758 9.266847 -5.119080 -3.772644 -15.082387 0.006837 5.382461 -0.097291 -0.001145 -0.003340 -0.073791 0.000000 0.000000 0.000000 0.000000 0.000000 0.000000 0.000000 4.661719 -6.890192 -5.156191 89.271471 31.680787 35.957543 179.835741 66.936192 179.919498 -7.068957 14.605455 -0.986740 0.131605 -0.995567 -0.000000 0.000000 0.000000 0.000000 0.000000 0.000000 0.000000 
